P2
#ceci est un test de Création
20 20
255
 0 0 0 0 255 255 0 0 0 0 0 0 0 0 255 255 0 0 0 0
 0 0 0 0 0 0 0 0 0 0 0 0 0 0 0 0 0 0 0 0
 0 0 0 0 0 0 0 0 0 0 0 0 0 0 0 0 0 0 0 0
 0 0 0 0 255 255 0 0 0 0 0 0 0 0 255 255 0 0 0 0
 255 0 0 255 255 255 255 0 0 255 255 0 0 255 255 255 255 0 0 255
 255 0 0 255 255 255 255 0 0 255 255 0 0 255 255 255 255 0 0 255
 0 0 0 0 255 255 0 0 0 0 0 0 0 0 255 255 0 0 0 0
 0 0 0 0 0 0 0 0 0 0 0 0 0 0 0 0 0 0 0 0
 0 0 0 0 0 0 0 0 0 0 0 0 0 0 0 0 0 0 0 0
 0 0 0 0 255 255 0 0 0 0 0 0 0 0 255 255 0 0 0 0
 0 0 0 0 255 255 0 0 0 0 0 0 0 0 255 255 0 0 0 0
 0 0 0 0 0 0 0 0 0 0 0 0 0 0 0 0 0 0 0 0
 0 0 0 0 0 0 0 0 0 0 0 0 0 0 0 0 0 0 0 0
 0 0 0 0 255 255 0 0 0 0 0 0 0 0 255 255 0 0 0 0
 255 0 0 255 255 255 255 0 0 255 255 0 0 255 255 255 255 0 0 255
 255 0 0 255 255 255 255 0 0 255 255 0 0 255 255 255 255 0 0 255
 0 0 0 0 255 255 0 0 0 0 0 0 0 0 255 255 0 0 0 0
 0 0 0 0 0 0 0 0 0 0 0 0 0 0 0 0 0 0 0 0
 0 0 0 0 0 0 0 0 0 0 0 0 0 0 0 0 0 0 0 0
 0 0 0 0 255 255 0 0 0 0 0 0 0 0 255 255 0 0 0 0