P2
#ceci est un test de Création
10 10
255
0 0 0 0 255 255 0 0 0 0
0 0 0 0 0 0 0 0 0 0
0 0 0 0 0 0 0 0 0 0
0 0 0 0 255 255 0 0 0 0
255 0 0 255 255 255 255 0 0 255
255 0 0 255 255 255 255 0 0 255
0 0 0 0 255 255 0 0 0 0
0 0 0 0 0 0 0 0 0 0
0 0 0 0 0 0 0 0 0 0
0 0 0 0 255 255 0 0 0 0